<?xml version="1.0" encoding="UTF-8" standalone="no"?>
<!-- Generator: Adobe Illustrator 21.0.0, SVG Export Plug-In . SVG Version: 6.00 Build 0)  -->

<svg
   xmlns:dc="http://purl.org/dc/elements/1.1/"
   xmlns:cc="http://creativecommons.org/ns#"
   xmlns:rdf="http://www.w3.org/1999/02/22-rdf-syntax-ns#"
   xmlns:svg="http://www.w3.org/2000/svg"
   xmlns="http://www.w3.org/2000/svg"
   xmlns:sodipodi="http://sodipodi.sourceforge.net/DTD/sodipodi-0.dtd"
   xmlns:inkscape="http://www.inkscape.org/namespaces/inkscape"
   version="1.1"
   id="Layer_1"
   x="0px"
   y="0px"
   viewBox="0 0 213.8308 370.10001"
   xml:space="preserve"
   sodipodi:docname="tree03.svg"
   width="213.8308"
   height="370.10001"
   inkscape:version="0.92.5 (2060ec1f9f, 2020-04-08)"><metadata
   id="metadata17"><rdf:RDF><cc:Work
       rdf:about=""><dc:format>image/svg+xml</dc:format><dc:type
         rdf:resource="http://purl.org/dc/dcmitype/StillImage" /><dc:title></dc:title></cc:Work></rdf:RDF></metadata><defs
   id="defs15" /><sodipodi:namedview
   pagecolor="#ffffff"
   bordercolor="#666666"
   borderopacity="1"
   objecttolerance="10"
   gridtolerance="10"
   guidetolerance="10"
   inkscape:pageopacity="0"
   inkscape:pageshadow="2"
   inkscape:window-width="887"
   inkscape:window-height="480"
   id="namedview13"
   showgrid="false"
   fit-margin-top="0"
   fit-margin-left="0"
   fit-margin-right="0"
   fit-margin-bottom="0"
   inkscape:zoom="0.39643878"
   inkscape:cx="106.74999"
   inkscape:cy="184.95001"
   inkscape:window-x="0"
   inkscape:window-y="27"
   inkscape:window-maximized="0"
   inkscape:current-layer="Layer_1" />
<style
   type="text/css"
   id="style2">
	.st0{fill:#A05F26;}
	.st1{fill:#82B04A;}
	.st2{fill:#B4D157;}
	.st3{fill:#5F9540;}
</style>
<path
   class="st0"
   d="m 139.7,370.1 h -22 -22 -22 c 0,0 13.8,-38 18.5,-91.8 0.2,0 0.3,0 0.5,0 0,0 0.1,0 0.1,0 1.8,0.1 3.4,0.1 4.9,0.1 0,0 0.1,0 0.1,0 0.5,0 0.9,0 1.4,0 0,0 0.1,0 0.1,0 0.4,0 0.9,0 1.3,0 0,0 0.1,0 0.1,0 0.9,0 1.6,0 2.4,-0.1 0,0 0,0 0.1,0 0.3,0 0.7,0 1,0 0,0 0.1,0 0.1,0 0.3,0 0.6,0 0.8,0 0,0 0.1,0 0.1,0 0.3,0 0.5,0 0.7,0 0,0 0.1,0 0.1,0 0.2,0 0.5,0 0.6,0 0,0 0,0 0,0 0.2,0 0.4,0 0.6,0 0,0 0.1,0 0.1,0 0.2,0 0.5,0 0.7,0 0,0 0.1,0 0.1,0 0.3,0 0.5,0 0.8,0 0,0 0.1,0 0.1,0 0.3,0 0.6,0 1,0 0,0 0.1,0 0.1,0 0.7,0 1.5,0 2.4,0.1 0,0 0.1,0 0.1,0 0.4,0 0.8,0 1.3,0 0,0 0.1,0 0.1,0 0.4,0 0.9,0 1.4,0 0,0 0.1,0 0.1,0 1.5,0 3.2,0 4.9,-0.1 0,0 0.1,0 0.1,0 0.2,0 0.3,0 0.5,0 4.9,53.8 18.7,91.8 18.7,91.8 z"
   id="path4"
   inkscape:connector-curvature="0"
   style="fill:#a05f26" />
<path
   class="st1"
   d="m 212.7,185.3 c 0.1,1.2 0.3,2.4 0.4,3.6 -0.1,-1.2 -0.3,-2.4 -0.4,-3.6 z m 0.4,3.5 c 5.8,68.2 -46.4,84.9 -80.2,88.6 33.8,-3.6 86,-20.3 80.2,-88.6 z M 90.9,278.2 c 0.4,0 0.9,0 1.3,0.1 0.2,0 0.3,0 0.5,0 -0.2,0 -0.3,0 -0.5,0 -0.4,0 -0.8,0 -1.3,-0.1 z M 15.3,247.1 c -0.2,-0.3 -0.4,-0.5 -0.7,-0.8 0.2,0.3 0.5,0.5 0.7,0.8 z m -4,-5.4 c -0.2,-0.3 -0.4,-0.6 -0.6,-0.9 0.2,0.3 0.4,0.6 0.6,0.9 z m 0.7,1 c -0.2,-0.3 -0.4,-0.7 -0.6,-1 0.1,0.3 0.4,0.6 0.6,1 z m 1.9,2.7 c -0.2,-0.3 -0.4,-0.6 -0.6,-0.9 0.2,0.3 0.4,0.6 0.6,0.9 z m 0.7,0.9 c -0.2,-0.3 -0.5,-0.6 -0.7,-0.9 0.3,0.3 0.5,0.6 0.7,0.9 z m -2,-2.7 c 0.2,0.3 0.4,0.6 0.7,1 -0.2,-0.4 -0.5,-0.7 -0.7,-1 z m 0,0 c -0.2,-0.3 -0.4,-0.6 -0.6,-0.9 0.2,0.3 0.4,0.6 0.6,0.9 z m -4.7,-8 c -0.2,-0.4 -0.4,-0.8 -0.6,-1.2 0.2,0.5 0.4,0.9 0.6,1.2 z m 0,0 c 0.2,0.3 0.4,0.7 0.5,1 -0.2,-0.3 -0.4,-0.6 -0.5,-1 z m -0.6,-1.1 c -0.2,-0.3 -0.3,-0.7 -0.5,-1 0.2,0.3 0.3,0.6 0.5,1 z m 2.8,5.2 c 0.2,0.3 0.4,0.7 0.6,1 -0.2,-0.3 -0.4,-0.6 -0.6,-1 z m 0,0 c -0.2,-0.3 -0.4,-0.7 -0.6,-1 0.2,0.4 0.4,0.7 0.6,1 z m -1.7,-3 c 0.2,0.4 0.4,0.7 0.6,1 -0.2,-0.3 -0.4,-0.7 -0.6,-1 z m 1.1,2 c -0.2,-0.3 -0.4,-0.7 -0.6,-1 0.3,0.4 0.4,0.7 0.6,1 z M 16,248 c -0.3,-0.3 -0.5,-0.6 -0.7,-0.9 0.2,0.3 0.5,0.6 0.7,0.9 z m 10.1,9.7 c -0.3,-0.2 -0.6,-0.5 -0.9,-0.7 0.3,0.2 0.6,0.5 0.9,0.7 z M 25.2,257 c -0.2,-0.2 -0.5,-0.4 -0.7,-0.6 0.2,0.2 0.5,0.4 0.7,0.6 z M 5.9,231.3 c 0.3,0.7 0.6,1.4 0.9,2.1 -0.3,-0.6 -0.6,-1.3 -0.9,-2.1 z m 22.6,28.2 c -0.2,-0.2 -0.5,-0.3 -0.7,-0.5 0.3,0.2 0.5,0.4 0.7,0.5 z M 27.8,259 c -0.3,-0.2 -0.6,-0.5 -1,-0.7 0.4,0.2 0.7,0.5 1,0.7 z m -3.3,-2.6 c -0.3,-0.3 -0.6,-0.5 -0.9,-0.8 0.3,0.3 0.6,0.5 0.9,0.8 z m 4,3.1 c 0.3,0.2 0.7,0.5 1,0.7 -0.3,-0.2 -0.6,-0.4 -1,-0.7 z m -10.3,-9 c -0.5,-0.6 -1.1,-1.2 -1.6,-1.8 0.5,0.6 1.1,1.2 1.6,1.8 z M 16,248 c 0.2,0.2 0.4,0.4 0.6,0.7 -0.2,-0.2 -0.4,-0.5 -0.6,-0.7 z m 2.9,3.2 c -0.2,-0.2 -0.4,-0.5 -0.7,-0.7 0.2,0.2 0.5,0.5 0.7,0.7 z m 2.4,2.4 c 0.2,0.2 0.5,0.4 0.7,0.7 -0.3,-0.3 -0.5,-0.5 -0.7,-0.7 z m 4.8,4.1 c 0.2,0.2 0.5,0.4 0.7,0.6 -0.2,-0.2 -0.4,-0.4 -0.7,-0.6 z M 22.9,255 c -0.3,-0.3 -0.6,-0.5 -0.9,-0.8 0.3,0.3 0.6,0.5 0.9,0.8 z m -2.5,-2.3 c 0.3,0.3 0.6,0.6 0.9,0.8 -0.3,-0.2 -0.6,-0.5 -0.9,-0.8 z M 5.9,231.3 c -0.1,-0.3 -0.2,-0.6 -0.4,-0.9 0.1,0.3 0.3,0.6 0.4,0.9 z M 0,202.3 c 0,-0.6 0,-1.2 0,-1.8 0,0.5 0,1.2 0,1.8 z m 0.2,3.2 c 0,-0.6 -0.1,-1.3 -0.1,-1.9 0,0.6 0,1.2 0.1,1.9 z m -0.1,-2 c 0,-0.4 0,-0.9 0,-1.3 -0.1,0.5 -0.1,0.9 0,1.3 z m 0.4,5.6 c 0,0.3 0.1,0.5 0.1,0.8 -0.1,-0.3 -0.1,-0.5 -0.1,-0.8 z m -0.3,-2.5 c 0.1,0.9 0.1,1.7 0.2,2.5 0,-0.8 -0.1,-1.7 -0.2,-2.5 z m 0,-1.1 c 0,0.4 0,0.7 0.1,1.1 -0.1,-0.4 -0.1,-0.8 -0.1,-1.1 z m 0.3,4.4 c 0.1,0.8 0.2,1.7 0.3,2.5 -0.1,-0.9 -0.2,-1.7 -0.3,-2.5 z m 0.1,-23.1 c -0.1,0.7 -0.1,1.5 -0.2,2.2 0.1,-0.7 0.1,-1.4 0.2,-2.2 z m 0.1,-1.3 c 0,0.4 -0.1,0.8 -0.1,1.3 0.1,-0.4 0.1,-0.8 0.1,-1.3 z m -0.6,8.4 c 0,0.6 -0.1,1.3 -0.1,1.9 0,-0.6 0.1,-1.3 0.1,-1.9 z m 0.2,-3.5 c 0,-0.5 0.1,-0.9 0.1,-1.4 0,0.5 -0.1,1 -0.1,1.4 z m -0.1,2.1 c 0,0.5 0,1 -0.1,1.4 0,-0.5 0,-1 0.1,-1.4 z m 0,0 c 0,-0.7 0.1,-1.3 0.1,-2 0,0.6 -0.1,1.3 -0.1,2 z M 0,195.8 c 0,0.5 0,0.9 0,1.4 0,-0.5 0,-0.9 0,-1.4 z m 3.8,29.7 c -0.1,-0.4 -0.3,-0.9 -0.4,-1.3 0.1,0.5 0.2,0.9 0.4,1.3 z M 3,223 c 0.1,0.4 0.2,0.8 0.3,1.2 0,-0.4 -0.2,-0.8 -0.3,-1.2 z m 0.8,2.5 c 0.1,0.4 0.2,0.8 0.4,1.1 -0.2,-0.3 -0.3,-0.7 -0.4,-1.1 z m 0.8,2.5 c -0.2,-0.4 -0.3,-0.9 -0.5,-1.3 0.2,0.4 0.3,0.8 0.5,1.3 z m 0.4,1 c 0.2,0.5 0.4,0.9 0.5,1.4 C 5.3,230 5.2,229.5 5,229 Z M 0.8,212.4 c 0.1,0.4 0.1,0.7 0.2,1.1 -0.1,-0.4 -0.1,-0.8 -0.2,-1.1 z m 1.9,9.3 c 0.1,0.5 0.2,0.9 0.4,1.4 -0.2,-0.5 -0.3,-1 -0.4,-1.4 z m 1.9,6.3 c 0.1,0.4 0.3,0.7 0.4,1.1 C 4.8,228.7 4.7,228.3 4.6,228 Z M 1.3,215.1 c 0.1,0.4 0.1,0.8 0.2,1.2 -0.1,-0.4 -0.2,-0.8 -0.2,-1.2 z M 1,213.5 c 0.1,0.6 0.2,1.1 0.3,1.7 C 1.2,214.6 1.1,214 1,213.5 Z m 1.4,7 c 0.1,0.4 0.2,0.8 0.3,1.2 -0.1,-0.4 -0.2,-0.8 -0.3,-1.2 z m -0.6,-2.7 c -0.1,-0.5 -0.2,-1 -0.3,-1.5 0.1,0.5 0.2,1.1 0.3,1.5 z m 0.2,1.3 c 0.1,0.5 0.2,0.9 0.3,1.4 0,-0.5 -0.2,-1 -0.3,-1.4 z m 0,0 c -0.1,-0.4 -0.2,-0.8 -0.3,-1.2 0.2,0.4 0.2,0.8 0.3,1.2 z M 22.9,255 c 0.2,0.2 0.5,0.4 0.7,0.6 -0.3,-0.2 -0.5,-0.4 -0.7,-0.6 z m 47,20.9 c -0.3,-0.1 -0.7,-0.1 -1,-0.2 0.4,0.1 0.7,0.1 1,0.2 z m -1.8,-0.4 c 0.3,0.1 0.6,0.1 0.9,0.2 -0.3,0 -0.6,-0.1 -0.9,-0.2 z m 1.8,0.4 c 0.3,0.1 0.6,0.1 0.9,0.2 -0.3,-0.1 -0.6,-0.2 -0.9,-0.2 z m 3.7,0.6 c -0.3,0 -0.6,-0.1 -0.9,-0.1 0.3,0 0.6,0.1 0.9,0.1 z m -44,-16.2 c 0.2,0.1 0.3,0.2 0.5,0.3 -0.2,-0.1 -0.4,-0.2 -0.5,-0.3 z m 38.5,15.2 c -0.3,-0.1 -0.7,-0.1 -1,-0.2 0.3,0.1 0.6,0.2 1,0.2 z m 3.7,0.7 c 0.3,0.1 0.6,0.1 0.9,0.1 -0.3,0 -0.6,0 -0.9,-0.1 z m -8.3,-1.6 c 0.9,0.2 1.9,0.4 2.8,0.6 -1,-0.2 -1.9,-0.4 -2.8,-0.6 z m 3.6,0.7 c -0.3,-0.1 -0.5,-0.1 -0.8,-0.2 0.2,0.1 0.5,0.2 0.8,0.2 z m -5.6,-1.2 c -0.4,-0.1 -0.7,-0.2 -1.1,-0.3 0.4,0.1 0.7,0.2 1.1,0.3 z m 0.8,0.2 c 0.4,0.1 0.8,0.2 1.1,0.3 -0.4,-0.1 -0.8,-0.2 -1.1,-0.3 z m 0,0 c -0.3,-0.1 -0.5,-0.1 -0.8,-0.2 0.2,0 0.5,0.1 0.8,0.2 z m 11.3,2.2 c 0.3,0 0.6,0.1 0.9,0.1 -0.3,0 -0.6,0 -0.9,-0.1 z m -10.2,-2 c 0,0 0,0.1 0,0 0,0.1 0,0 0,0 z m -43,-21.8 c -0.2,-0.2 -0.5,-0.5 -0.7,-0.7 0.2,0.3 0.5,0.5 0.7,0.7 z M 0.7,185.5 c 0,-0.1 0,-0.2 0,-0.3 0,0 0,0 0,0 0.1,0.1 0.1,0.2 0,0.3 z m 19,66.5 c -0.3,-0.3 -0.6,-0.6 -0.8,-0.9 0.3,0.4 0.5,0.7 0.8,0.9 z M 0,199.1 c 0,0.5 0,0.9 0,1.4 0,-0.5 0,-1 0,-1.4 z m 74.5,77.6 c 0.3,0 0.6,0.1 0.9,0.1 -0.3,-0.1 -0.6,-0.1 -0.9,-0.1 z M 207,157.2 c 0.3,1.1 0.6,2.2 0.9,3.2 0,0 0,0 0,0 -0.3,-1 -0.6,-2.1 -0.9,-3.2 z M 5.6,160.4 c 0,0 0,0 0,0 0.3,-1.1 0.6,-2.2 0.9,-3.2 -0.4,1.1 -0.7,2.2 -0.9,3.2 z M 0,197.2 c 0,0.6 0,1.2 0,1.9 0,-0.7 0,-1.3 0,-1.9 z m 59.6,76.4 c 0.3,0.1 0.5,0.1 0.8,0.2 -0.3,-0.1 -0.6,-0.1 -0.8,-0.2 z m 16.8,3.3 c 0.3,0 0.5,0.1 0.8,0.1 -0.3,0 -0.6,0 -0.8,-0.1 z m 0,0 c -0.3,0 -0.6,-0.1 -1,-0.1 0.3,0 0.6,0.1 1,0.1 z m 0.8,0.1 c 0.4,0 0.7,0.1 1.1,0.1 -0.4,0 -0.8,0 -1.1,-0.1 z m 1,0.2 c 0.2,0 0.4,0.1 0.7,0.1 -0.2,-0.1 -0.4,-0.1 -0.7,-0.1 z m 2.4,0.2 c -0.6,-0.1 -1.1,-0.1 -1.7,-0.2 0.6,0.1 1.2,0.2 1.7,0.2 z m -9.8,-1.3 c 0.3,0.1 0.6,0.1 1,0.2 -0.3,-0.1 -0.7,-0.2 -1,-0.2 z M 36.6,264.6 c 0.4,0.2 0.7,0.4 1.1,0.6 -0.4,-0.2 -0.7,-0.4 -1.1,-0.6 z m 2.9,1.5 c 0.3,0.1 0.5,0.3 0.8,0.4 -0.3,-0.1 -0.5,-0.2 -0.8,-0.4 z m -1.1,-0.5 c -0.3,-0.1 -0.5,-0.3 -0.8,-0.4 0.3,0.1 0.6,0.2 0.8,0.4 z m 0,0 c 0.4,0.2 0.7,0.4 1.1,0.6 -0.3,-0.3 -0.7,-0.4 -1.1,-0.6 z m 3.8,1.8 c -0.3,-0.1 -0.5,-0.2 -0.8,-0.4 0.3,0.2 0.5,0.3 0.8,0.4 z M 41.4,267 c -0.4,-0.2 -0.7,-0.4 -1.1,-0.5 0.4,0.2 0.7,0.4 1.1,0.5 z m -5.5,-2.8 c 0.2,0.1 0.5,0.3 0.7,0.4 -0.2,-0.1 -0.5,-0.3 -0.7,-0.4 z m -1.8,-1 c -0.4,-0.2 -0.7,-0.4 -1.1,-0.7 0.3,0.2 0.7,0.4 1.1,0.7 z M 33,262.5 c -0.1,-0.1 -0.3,-0.2 -0.4,-0.3 0.1,0.1 0.2,0.2 0.4,0.3 z m -2.9,-1.9 c 0.8,0.6 1.6,1.1 2.5,1.6 -0.9,-0.5 -1.7,-1.1 -2.5,-1.6 z m 4.7,3 c -0.2,-0.1 -0.5,-0.3 -0.7,-0.4 0.2,0.1 0.4,0.2 0.7,0.4 z m 24.8,10 c -0.4,-0.1 -0.7,-0.2 -1.1,-0.3 0.3,0.1 0.7,0.2 1.1,0.3 z m -24.8,-10 c 0.4,0.2 0.7,0.4 1.1,0.6 -0.4,-0.2 -0.8,-0.4 -1.1,-0.6 z m 7.4,3.8 c 0.4,0.2 0.7,0.3 1.1,0.5 -0.4,-0.2 -0.8,-0.3 -1.1,-0.5 z m 10.5,4.1 c 0.4,0.1 0.8,0.2 1.1,0.4 -0.3,-0.1 -0.7,-0.2 -1.1,-0.4 z m 1.9,0.7 c -0.3,-0.1 -0.5,-0.2 -0.8,-0.3 0.3,0.1 0.6,0.2 0.8,0.3 z m 1.9,0.5 c -0.3,-0.1 -0.5,-0.2 -0.8,-0.2 0.3,0.1 0.6,0.2 0.8,0.2 z m -0.7,-0.2 c -0.4,-0.1 -0.7,-0.2 -1.1,-0.3 0.3,0.1 0.7,0.2 1.1,0.3 z m 2.7,0.8 c -0.3,-0.1 -0.5,-0.1 -0.8,-0.2 0.2,0 0.5,0.1 0.8,0.2 z m -2,-0.6 c 0.4,0.1 0.7,0.2 1.1,0.3 -0.3,0 -0.7,-0.1 -1.1,-0.3 z m -11.3,-4 c -0.4,-0.2 -0.8,-0.3 -1.2,-0.5 0.4,0.2 0.8,0.4 1.2,0.5 z m 0.5,0.2 c -0.2,-0.1 -0.4,-0.1 -0.5,-0.2 0.2,0.1 0.3,0.2 0.5,0.2 z m 4.4,1.7 c -1.5,-0.5 -2.9,-1.1 -4.4,-1.7 1.5,0.7 3,1.2 4.4,1.7 z M 44,268.2 c -0.2,-0.1 -0.5,-0.2 -0.7,-0.3 0.2,0.1 0.5,0.2 0.7,0.3 z m 7.9,3.1 c -0.4,-0.1 -0.8,-0.3 -1.2,-0.4 0.5,0.1 0.9,0.2 1.2,0.4 z m -1.1,-0.4 c -0.2,-0.1 -0.4,-0.2 -0.6,-0.2 0.1,0 0.4,0.1 0.6,0.2 z m 1.9,0.6 c -0.3,-0.1 -0.5,-0.2 -0.8,-0.3 0.3,0.2 0.5,0.3 0.8,0.3 z m 68,6.8 c -1.8,0.1 -3.4,0.1 -4.9,0.1 1.5,0 3.1,0 4.9,-0.1 z m -17.6,0 c -0.7,0 -1.5,0 -2.4,0.1 0.9,0 1.7,0 2.4,-0.1 z m 9.7,0.1 c -0.9,0 -1.6,0 -2.4,-0.1 0.7,0.1 1.5,0.1 2.4,0.1 z m -15.1,0 c -1.5,0 -3.2,0 -4.9,-0.1 1.7,0.1 3.4,0.1 4.9,0.1 z m 9,-26.9 c -2.3,0.1 -6.9,0.3 -13.1,0.2 C 66,250.9 8.2,242.3 0.7,185.3 c 0.9,-7.7 2.4,-16 4.8,-24.9 33,-87.8 66,-119.9 85,-131.7 9.8,-6.1 22.6,-6.1 32.4,0 18.9,11.7 51.9,43.9 85,131.7 2.4,8.9 3.9,17.2 4.8,24.8 -7.5,57 -65.3,65.6 -92.9,66.4 -6.1,0.3 -10.8,0.1 -13.1,-0.1 z m 81.2,-60.6 c 0.6,3.7 4,6.2 7.7,5.7 3.7,-0.6 6.2,-4 5.7,-7.7 -0.6,-3.7 -4,-6.2 -7.7,-5.7 -3.7,0.5 -6.3,4 -5.7,7.7 z m -15.5,24.7 c 0.7,4.2 4.6,7.1 8.8,6.5 4.2,-0.7 7.1,-4.6 6.5,-8.8 -0.7,-4.2 -4.6,-7.1 -8.8,-6.5 -4.2,0.7 -7.1,4.6 -6.5,8.8 z m -14,-3.5 c 0.4,2.4 2.6,4 4.9,3.6 2.4,-0.4 4,-2.6 3.6,-4.9 -0.4,-2.4 -2.6,-4 -4.9,-3.6 -2.4,0.4 -4,2.6 -3.6,4.9 z M 106.3,44.7 c -3.7,0.6 -6.2,4 -5.7,7.7 0.6,3.7 4,6.2 7.7,5.7 3.7,-0.6 6.2,-4 5.7,-7.7 -0.5,-3.7 -4,-6.3 -7.7,-5.7 z M 94.6,41.3 c 0.4,2.4 2.6,4 4.9,3.6 2.4,-0.4 4,-2.6 3.6,-4.9 -0.4,-2.4 -2.6,-4 -4.9,-3.6 -2.4,0.3 -4,2.5 -3.6,4.9 z m -0.2,10.2 c -0.7,-4.2 -4.6,-7.1 -8.8,-6.5 -4.2,0.7 -7.1,4.6 -6.5,8.8 0.7,4.2 4.6,7.1 8.8,6.5 4.3,-0.6 7.2,-4.6 6.5,-8.8 z m 26.4,226.8 c 0.2,0 0.3,0 0.5,0 0.4,0 0.8,0 1.3,-0.1 -0.4,0 -0.8,0 -1.3,0.1 -0.2,0 -0.4,0 -0.5,0 z"
   id="path6"
   inkscape:connector-curvature="0"
   style="fill:#82b04a" />
<path
   class="st2"
   d="m 114.1,50.4 c 0.6,3.7 -2,7.2 -5.7,7.7 -3.7,0.6 -7.2,-2 -7.7,-5.7 -0.6,-3.7 2,-7.2 5.7,-7.7 3.6,-0.6 7.1,2 7.7,5.7 z M 103.1,40 c -0.4,-2.4 -2.6,-4 -4.9,-3.6 -2.4,0.4 -4,2.6 -3.6,4.9 0.4,2.4 2.6,4 4.9,3.6 2.4,-0.4 4,-2.6 3.6,-4.9 z m -17.5,5 c -4.2,0.7 -7.1,4.6 -6.5,8.8 0.7,4.2 4.6,7.1 8.8,6.5 4.2,-0.7 7.1,-4.6 6.5,-8.8 C 93.8,47.3 89.8,44.4 85.6,45 Z M 207,157.2 c 0,0 0,-0.1 0,0 -0.3,-1.1 -0.6,-2.1 -0.9,-3.2 0,-0.1 -0.1,-0.2 -0.1,-0.3 -0.3,-0.9 -0.6,-1.9 -0.9,-2.9 -0.1,-0.2 -0.1,-0.4 -0.2,-0.6 -0.4,-1.1 -0.7,-2.2 -1.1,-3.4 C 172.1,51 139.8,16.8 121.6,4.6 117.1,1.6 111.8,0 106.6,0 101.4,0 96.2,1.5 91.6,4.6 73.4,16.8 41.2,51 9.4,146.8 c 0,0 0,0 0,0.1 -0.4,1.1 -0.7,2.2 -1.1,3.3 -0.1,0.2 -0.1,0.4 -0.2,0.6 -0.3,1 -0.6,1.9 -0.9,2.9 0,0.1 -0.1,0.2 -0.1,0.3 -0.3,1 -0.6,2.1 -0.9,3.1 0,0 0,0.1 0,0.1 -0.3,1.1 -0.6,2.2 -0.9,3.2 33,-87.9 66,-120 85,-131.7 9.8,-6.1 22.6,-6.1 32.4,0 18.9,11.7 51.9,43.9 85,131.7 -0.1,-1 -0.4,-2.1 -0.7,-3.2 z"
   id="path8"
   inkscape:connector-curvature="0"
   style="fill:#b4d157" />
<path
   class="st3"
   d="m 132.9,277.4 c -0.1,0 -0.1,0 0,0 -0.7,0.1 -1.5,0.2 -2.2,0.2 0,0 0,0 0,0 -2.1,0.2 -4.2,0.4 -6.1,0.5 0,0 0,0 0,0 -0.6,0 -1.3,0.1 -1.9,0.1 0,0 -0.1,0 -0.1,0 -0.4,0 -0.8,0 -1.3,0.1 -0.2,0 -0.3,0 -0.5,0 0,0 -0.1,0 -0.1,0 -1.8,0.1 -3.4,0.1 -4.9,0.1 0,0 -0.1,0 -0.1,0 -0.5,0 -0.9,0 -1.4,0 0,0 -0.1,0 -0.1,0 -0.4,0 -0.9,0 -1.3,0 0,0 -0.1,0 -0.1,0 -0.9,0 -1.6,0 -2.4,-0.1 0,0 -0.1,0 -0.1,0 -0.3,0 -0.7,0 -1,0 0,0 -0.1,0 -0.1,0 -0.3,0 -0.6,0 -0.8,0 0,0 -0.1,0 -0.1,0 -0.3,0 -0.5,0 -0.7,0 0,0 -0.1,0 -0.1,0 -0.2,0 -0.4,0 -0.6,0 0,0 0,0 0,0 -0.2,0 -0.4,0 -0.6,0 0,0 -0.1,0 -0.1,0 -0.2,0 -0.5,0 -0.7,0 0,0 -0.1,0 -0.1,0 -0.3,0 -0.5,0 -0.8,0 0,0 -0.1,0 -0.1,0 -0.3,0 -0.6,0 -1,0 0,0 0,0 -0.1,0 -0.7,0 -1.5,0 -2.4,0.1 0,0 -0.1,0 -0.1,0 -0.4,0 -0.8,0 -1.3,0 0,0 -0.1,0 -0.1,0 -0.4,0 -0.9,0 -1.4,0 0,0 -0.1,0 -0.1,0 -1.5,0 -3.2,0 -4.9,-0.1 0,0 -0.1,0 -0.1,0 -0.2,0 -0.3,0 -0.5,0 -0.4,0 -0.8,0 -1.3,-0.1 0,0 -0.1,0 -0.1,0 -0.6,0 -1.2,-0.1 -1.9,-0.1 0,0 0,0 0,0 -1.9,-0.1 -4,-0.3 -6.1,-0.5 0,0 0,0 0,0 -0.7,-0.1 -1.4,-0.1 -2.1,-0.2 0,0 0,0 0,0 -34.4,-3.8 -87.9,-21 -79.9,-92.2 7.5,57 65.3,65.6 92.9,66.4 6.2,0.2 10.8,0 13.1,-0.2 2.3,0.1 6.9,0.3 13.1,0.2 27.6,-0.8 85.4,-9.4 92.9,-66.4 v 0 c 0,0 0,0 0,0 7.6,71.3 -45.8,88.5 -80.2,92.2 z m 30.4,-61.7 c 2.4,-0.4 4,-2.6 3.6,-4.9 -0.4,-2.4 -2.6,-4 -4.9,-3.6 -2.4,0.4 -4,2.6 -3.6,4.9 0.3,2.4 2.5,4 4.9,3.6 z m 18,6.4 c 4.2,-0.7 7.1,-4.6 6.5,-8.8 -0.7,-4.2 -4.6,-7.1 -8.8,-6.5 -4.2,0.7 -7.1,4.6 -6.5,8.8 0.6,4.3 4.5,7.2 8.8,6.5 z m 14.3,-25.6 c 3.7,-0.6 6.2,-4 5.7,-7.7 -0.6,-3.7 -4,-6.2 -7.7,-5.7 -3.7,0.6 -6.2,4 -5.7,7.7 0.6,3.8 4,6.3 7.7,5.7 z"
   id="path10"
   inkscape:connector-curvature="0"
   style="fill:#5f9540" />
</svg>