<?xml version="1.0" encoding="UTF-8" standalone="no"?>
<!-- Created with Inkscape (http://www.inkscape.org/) -->

<svg
   xmlns:dc="http://purl.org/dc/elements/1.1/"
   xmlns:cc="http://creativecommons.org/ns#"
   xmlns:rdf="http://www.w3.org/1999/02/22-rdf-syntax-ns#"
   xmlns:svg="http://www.w3.org/2000/svg"
   xmlns="http://www.w3.org/2000/svg"
   xmlns:sodipodi="http://sodipodi.sourceforge.net/DTD/sodipodi-0.dtd"
   xmlns:inkscape="http://www.inkscape.org/namespaces/inkscape"
   width="18.390047mm"
   height="27.357916mm"
   viewBox="0 0 18.390047 27.357916"
   version="1.1"
   id="svg2606"
   inkscape:version="0.92.5 (2060ec1f9f, 2020-04-08)"
   sodipodi:docname="tree01.svg">
  <defs
     id="defs2600" />
  <sodipodi:namedview
     id="base"
     pagecolor="#ffffff"
     bordercolor="#666666"
     borderopacity="1.0"
     inkscape:pageopacity="0.0"
     inkscape:pageshadow="2"
     inkscape:zoom="0.35"
     inkscape:cx="-710.96144"
     inkscape:cy="554.55713"
     inkscape:document-units="mm"
     inkscape:current-layer="layer1"
     showgrid="false"
     fit-margin-top="0"
     fit-margin-left="0"
     fit-margin-right="0"
     fit-margin-bottom="0"
     inkscape:window-width="1920"
     inkscape:window-height="1016"
     inkscape:window-x="0"
     inkscape:window-y="27"
     inkscape:window-maximized="1" />
  <metadata
     id="metadata2603">
    <rdf:RDF>
      <cc:Work
         rdf:about="">
        <dc:format>image/svg+xml</dc:format>
        <dc:type
           rdf:resource="http://purl.org/dc/dcmitype/StillImage" />
        <dc:title></dc:title>
      </cc:Work>
    </rdf:RDF>
  </metadata>
  <g
     inkscape:label="Calque 1"
     inkscape:groupmode="layer"
     id="layer1"
     transform="translate(-116.29307,-268.20199)">
    <g
       transform="matrix(0.26458333,0,0,0.26458333,13.714115,144.5622)"
       id="g1002"
       inkscape:export-xdpi="299.88397"
       inkscape:export-ydpi="299.88397">
      <path
         style="fill:none"
         inkscape:connector-curvature="0"
         id="path990"
         d="m 422.4,511 c 0.6,4.9 1.2,10.5 1.7,16.9 0.8,-2.4 1.9,-5.2 3.3,-8.2 -1.2,-1.8 -1.8,-3.9 -1.8,-6.1 0,0 0,0 0,-0.1 v 0 c 0,-1.9 0.5,-3.6 1.3,-5.2 0,0 0,-0.1 -0.1,-0.1 -1.2,1.2 -2.7,2.1 -4.4,2.8 z"
         class="st4" />
      <path
         style="fill:none"
         inkscape:connector-curvature="0"
         id="path992"
         d="m 416.4,511.8 c 0.2,0.6 0.3,1.2 0.4,1.8 v 0 0 c 0,0.1 0,0.2 0,0.3 0,0 0,0.1 0,0.1 0,0.1 0,0.2 0,0.3 0,0.1 0,0.2 0,0.2 0,0.1 0,0.1 0,0.2 0,0.2 0,0.3 0,0.5 v 0 0 0 c 0,0.4 0,0.9 -0.1,1.3 0,0.4 -0.1,0.8 -0.2,1.2 -0.3,1.2 -0.7,2.4 -1.4,3.4 -0.3,0.5 -0.7,1 -1,1.5 -0.1,0.1 -0.1,0.1 -0.2,0.2 2,2.5 4,5.5 5.6,9 0.1,-6.6 0.1,-13.6 -0.2,-20.2 -0.7,0.1 -1.3,0.1 -2,0.1 -0.2,0.2 -0.5,0.1 -0.9,0.1 z"
         class="st4" />
      <path
         style="fill:#82b04a"
         inkscape:connector-curvature="0"
         id="path994"
         d="m 388.5,509.8 c 0.4,0.8 0.8,1.6 1.4,2.3 -0.5,-0.7 -1,-1.5 -1.4,-2.3 z m 28.3,3.8 c -0.1,-0.6 -0.2,-1.2 -0.4,-1.8 -5.6,-0.4 -10.1,-4 -11.5,-8.9 -0.2,0 -0.3,-0.1 -0.5,-0.1 -0.1,0 -0.2,0.1 -0.3,0.1 -0.1,-0.1 -0.2,-0.1 -0.2,-0.2 -1.5,-0.3 -3,-0.9 -4.2,-1.7 -0.4,0 -0.8,-0.1 -1.1,-0.1 -4.9,0 -8.9,4 -8.9,8.9 0,0.8 0.1,1.6 0.3,2.3 0.1,0.2 0.3,0.3 0.4,0.5 -0.2,0.9 -0.3,1.8 -0.3,2.7 0,0.4 0,0.8 0.1,1.3 2.2,3.5 7.1,6 12.8,6 2.3,0 4.5,-0.4 6.4,-1.1 -2.3,-3.6 -5,-7 -8,-9.7 0,0 5.1,2.7 10.4,8.5 2.7,-1.6 4.6,-4 5,-6.7 z m -22.1,-16.2 c 0.4,-0.1 0.7,-0.2 1.1,-0.2 -0.4,0 -0.8,0.1 -1.1,0.2 z m 45.9,-0.9 c 0,0 0,0 0,0 v 0 c 0,0 0,0 0,0 z M 422,507.3 c -2.8,-20.1 -6.3,-26.5 -6.3,-26.5 2.1,6.7 3.2,16.3 3.7,26.8 -0.1,0 -0.1,0 -0.2,0 -0.8,0 -1.5,-0.1 -2.2,-0.2 -0.6,-0.1 -1.1,-0.2 -1.6,-0.4 -2.7,-0.8 -4.9,-2.4 -6.3,-4.5 -0.8,-1.2 -1.3,-2.5 -1.5,-3.9 v 0 c -0.1,-0.4 -0.1,-0.8 -0.1,-1.2 0,-0.1 0,-0.3 0,-0.4 -1.1,0.4 -2.2,0.5 -3.4,0.5 -5.1,0 -9.3,-3.6 -9.9,-8.2 0.6,-3.4 2.7,-6.4 5.8,-8.2 v -1 c 0,-4.8 3.9,-8.8 8.8,-8.8 2.1,0 4.1,0.8 5.6,2 1.7,-1 3.6,-1.5 5.7,-1.5 4.6,0 8.6,2.7 10.4,6.6 0.4,0 0.7,-0.1 1.1,-0.1 4.9,0 8.8,4 8.8,8.8 0,0.2 0,0.4 0,0.6 0.1,-0.2 0.2,-0.3 0.3,-0.5 -0.1,0.2 -0.3,0.5 -0.4,0.7 0.6,1.4 1,2.9 1,4.5 0,0.2 0,0.3 0,0.5 -0.5,1.5 -1.5,2.8 -2.9,3.8 -1.3,-0.9 -2.9,-1.4 -4.6,-1.4 -4.6,0 -8.3,3.7 -8.3,8.3 0,0.7 0.1,1.4 0.2,2 -1.1,0.9 -2.4,1.5 -3.7,1.7 z m -16.4,-29.8 c -0.2,-1.2 -1.3,-1.9 -2.4,-1.8 -1.2,0.2 -1.9,1.3 -1.8,2.4 0.2,1.2 1.3,1.9 2.4,1.8 1.1,-0.2 1.9,-1.2 1.8,-2.4 z m 1.3,-1.8 c 0.6,-0.1 1.1,-0.7 1,-1.3 -0.1,-0.6 -0.7,-1.1 -1.3,-1 -0.6,0.1 -1.1,0.7 -1,1.3 0.1,0.7 0.7,1.1 1.3,1 z m 2,4.2 c 1,-0.2 1.7,-1.1 1.6,-2.1 -0.2,-1 -1.1,-1.7 -2.1,-1.6 -1,0.1 -1.7,1.1 -1.6,2.1 0.1,1.1 1.1,1.8 2.1,1.6 z m 46.5,33.1 c -0.1,0.1 -0.1,0.2 -0.2,0.2 0.1,-0.1 0.1,-0.2 0.2,-0.2 z m 0.4,-0.7 c -0.1,0.2 -0.3,0.4 -0.4,0.6 0.1,-0.1 0.3,-0.4 0.4,-0.6 z m -0.8,1.2 c 0.1,-0.1 0.1,-0.2 0.2,-0.3 0,0.1 -0.1,0.2 -0.2,0.3 0,-0.1 0,0 0,0 z m 0.3,-2.6 c 0,0.9 -0.1,1.7 -0.3,2.5 -1.1,1.4 -2.4,2.5 -3.9,3.2 0,0.2 -0.1,0.3 -0.2,0.5 -2.7,2.4 -6.8,3.9 -11.4,3.9 -3,0 -5.8,-0.7 -8.2,-1.8 4.4,-11.4 8.5,-18.1 8.5,-18.1 -4.9,4.8 -8.6,10.7 -11.4,16.2 -1.3,-1.1 -2.3,-2.4 -2.9,-3.8 0,-1.9 0.5,-3.6 1.3,-5.2 v -0.2 -0.3 c 0,-1.2 0.2,-2.3 0.7,-3.4 0.5,-1.3 1.4,-2.4 2.4,-3.3 1.5,-1.3 3.5,-2.1 5.7,-2.1 1.1,0 2.1,0.2 3.1,0.6 0,0 0,0 0,0 0.9,0.4 1.8,0.9 2.5,1.5 1.1,-0.4 2.3,-0.6 3.5,-0.6 6,0 10.6,4.7 10.6,10.4 z m -17.2,5.9 c -0.3,-1.1 -1.5,-1.8 -2.6,-1.5 -1.1,0.3 -1.8,1.5 -1.5,2.6 0.3,1.1 1.5,1.8 2.6,1.5 1.2,-0.3 1.9,-1.5 1.5,-2.6 z m 4.3,1 c -0.2,-0.6 -0.8,-1 -1.5,-0.8 -0.6,0.2 -1,0.8 -0.8,1.5 0.2,0.6 0.8,1 1.5,0.8 0.6,-0.2 1,-0.9 0.8,-1.5 z"
         class="st0" />
      <path
         style="fill:#b4d157"
         inkscape:connector-curvature="0"
         id="path996"
         d="m 403.9,502.8 c 0.2,0 0.3,0.1 0.5,0.1 -0.1,0 -0.2,0.1 -0.3,0.1 0,-0.1 -0.1,-0.2 -0.2,-0.2 z m -8.1,-5.6 c -0.4,0 -0.7,0.1 -1.1,0.2 -0.1,0 -0.1,0 -0.2,0 -0.4,0.1 -0.8,0.2 -1.2,0.4 -0.4,0.2 -0.8,0.4 -1.2,0.6 -0.5,0.3 -1,0.6 -1.4,1 -0.6,0.5 -1.1,1.1 -1.5,1.7 -0.1,0.2 -0.2,0.3 -0.3,0.5 -0.8,1.3 -1.2,2.9 -1.2,4.5 v 0 0 c 0,0.1 0,0.3 0,0.4 0,0 0,0.1 0,0.1 0,0.1 0,0.2 0,0.3 0,0.1 0,0.1 0,0.2 0,0.1 0,0.2 0,0.2 0,0.1 0,0.1 0,0.2 0,0.1 0,0.1 0,0.2 0,0.1 0,0.1 0,0.2 0,0.1 0,0.1 0,0.2 0,0.1 0,0.1 0.1,0.2 0,0.1 0,0.1 0,0.2 0,0.1 0,0.2 0.1,0.2 0,0 0,0.1 0,0.1 0,0.1 0.1,0.2 0.1,0.3 0,0 0,0.1 0,0.1 0,0.1 0.1,0.2 0.1,0.3 0,0 0,0 0,0 0.4,0.8 0.8,1.6 1.4,2.3 v 0 c -0.2,-0.7 -0.3,-1.5 -0.3,-2.3 0,-4.9 4,-8.9 8.9,-8.9 0.4,0 0.8,0 1.1,0.1 -1.1,-0.7 -2.4,-2 -3.4,-3.5 z m 12.5,-20.9 c -1,0.2 -1.7,1.1 -1.6,2.1 0.2,1 1.1,1.7 2.1,1.6 1,-0.2 1.7,-1.1 1.6,-2.1 -0.1,-1.1 -1.1,-1.8 -2.1,-1.6 z m -5.2,-0.6 c -1.2,0.2 -1.9,1.3 -1.8,2.4 0.2,1.2 1.3,1.9 2.4,1.8 1.2,-0.2 1.9,-1.3 1.8,-2.4 -0.1,-1.1 -1.2,-1.9 -2.4,-1.8 z m 4.8,-1.3 c -0.1,-0.6 -0.7,-1.1 -1.3,-1 -0.6,0.1 -1.1,0.7 -1,1.3 0.1,0.6 0.7,1.1 1.3,1 0.7,-0.1 1.1,-0.7 1,-1.3 z m 22.6,4.2 c 0.4,0 0.7,-0.1 1.1,-0.1 4.9,0 8.8,4 8.8,8.8 0,0.2 0,0.4 0,0.6 0.1,-0.2 0.2,-0.3 0.3,-0.5 0,0 0,0 0,0 0.1,-0.2 0.2,-0.3 0.3,-0.5 0,0 0,0 0,0 0.1,-0.2 0.1,-0.3 0.2,-0.5 0,0 0,0 0,-0.1 0.1,-0.2 0.1,-0.3 0.2,-0.5 0,0 0,-0.1 0,-0.1 0,-0.1 0.1,-0.3 0.1,-0.4 0,-0.1 0,-0.1 0,-0.2 0,-0.1 0.1,-0.3 0.1,-0.4 0,-0.1 0,-0.2 0,-0.3 0,-0.1 0,-0.2 0,-0.3 0,-0.2 0,-0.4 0,-0.6 0,-4.6 -3.7,-8.3 -8.3,-8.3 -0.4,0 -0.8,0 -1.1,0.1 -1.8,-4.6 -6.6,-8 -12.3,-8 -3.1,0 -6,1 -8.2,2.7 -1.3,-0.9 -3,-1.5 -4.8,-1.5 -4.6,0 -8.3,3.7 -8.3,8.3 0,1.6 0.4,3.1 1.2,4.3 v -1 c 0,-4.8 3.9,-8.8 8.8,-8.8 2.1,0 4.1,0.8 5.6,2 1.7,-1 3.6,-1.5 5.7,-1.5 4.7,0.2 8.7,2.9 10.6,6.8 z m 15.6,16.5 c -2,0 -3.8,0.5 -5.4,1.4 v 0 c -0.5,0.3 -1.1,0.6 -1.5,1 -0.2,-0.2 -0.4,-0.3 -0.7,-0.5 -1.3,-0.9 -2.9,-1.4 -4.6,-1.4 -4.6,0 -8.3,3.7 -8.3,8.3 0,0.7 0.1,1.4 0.2,2 0.2,0.9 0.6,1.7 1,2.4 0,0 0,0.1 0.1,0.1 v -0.2 -0.3 c 0,-1.2 0.2,-2.3 0.7,-3.4 0.5,-1.3 1.4,-2.4 2.4,-3.3 1.5,-1.3 3.5,-2.1 5.7,-2.1 1.1,0 2.1,0.2 3.1,0.6 0,0 0,0 0,0 0.9,0.4 1.8,0.9 2.5,1.5 1.1,-0.4 2.3,-0.6 3.5,-0.6 5.7,0 10.4,4.7 10.4,10.4 0,0.9 -0.1,1.7 -0.3,2.5 0.3,-0.4 0.5,-0.7 0.8,-1.1 0,0 0,0 0,-0.1 0.1,-0.2 0.3,-0.4 0.4,-0.7 0,-0.1 0.1,-0.1 0.1,-0.2 0.1,-0.2 0.2,-0.3 0.2,-0.5 0,-0.1 0.1,-0.2 0.1,-0.3 0,-0.1 0.1,-0.2 0.1,-0.3 0.1,-0.2 0.1,-0.3 0.2,-0.5 0,-0.1 0,-0.2 0.1,-0.2 0,-0.2 0.1,-0.3 0.1,-0.5 0,-0.1 0,-0.1 0,-0.2 0,-0.2 0.1,-0.4 0.1,-0.7 0,-0.1 0,-0.1 0,-0.2 0,-0.2 0.1,-0.5 0.1,-0.7 0,0 0,-0.1 0,-0.1 0,-0.2 0,-0.5 0,-0.7 0.2,-6.3 -4.9,-11.4 -11.1,-11.4 z"
         class="st2" />
      <path
         style="fill:#5f9540"
         inkscape:connector-curvature="0"
         id="path998"
         d="m 416.9,514.8 c 0,0.2 0,0.3 0,0.5 v 0 c 0,0.4 0,0.9 -0.1,1.3 0,0.4 -0.1,0.8 -0.2,1.2 -0.3,1.2 -0.7,2.4 -1.4,3.4 -0.3,0.5 -0.7,1 -1,1.5 -0.1,0.1 -0.1,0.1 -0.2,0.2 -0.8,-1 -1.6,-1.9 -2.3,-2.7 2.7,-1.6 4.6,-4 5.1,-6.6 v 0 c 0,0.1 0,0.2 0,0.3 0,0 0,0.1 0,0.1 0,0.1 0,0.2 0,0.3 0,0.1 0,0.2 0,0.2 0.1,0.2 0.1,0.3 0.1,0.3 z m -14,7.8 c -5.7,0 -10.6,-2.5 -12.8,-6 v 0 0 c 0,0.1 0,0.2 0,0.3 0,0.1 0,0.2 0,0.3 0,0.1 0,0.2 0.1,0.3 0,0.1 0,0.2 0.1,0.3 0,0.1 0,0.2 0.1,0.3 0,0.1 0,0.2 0.1,0.3 0,0.1 0.1,0.2 0.1,0.3 0,0.1 0.1,0.2 0.1,0.3 0,0.1 0.1,0.2 0.1,0.3 0,0.1 0.1,0.2 0.1,0.3 0,0.1 0.1,0.2 0.1,0.3 0,0.1 0.1,0.2 0.1,0.3 0,0.1 0.1,0.2 0.1,0.3 0,0.1 0.1,0.2 0.1,0.3 0,0.1 0.1,0.2 0.1,0.3 0,0.1 0.1,0.2 0.1,0.3 0,0.1 0.1,0.2 0.2,0.3 0.1,0.1 0.1,0.2 0.2,0.3 0.1,0.1 0.1,0.2 0.2,0.3 0.1,0.1 0.1,0.2 0.2,0.2 0.1,0.1 0.1,0.2 0.2,0.2 0.1,0.1 0.1,0.2 0.2,0.2 0.1,0.1 0.1,0.2 0.2,0.2 0.1,0.1 0.1,0.2 0.2,0.2 0.1,0.1 0.1,0.1 0.2,0.2 0.1,0.1 0.1,0.2 0.2,0.2 0.1,0.1 0.1,0.1 0.2,0.2 0.1,0.1 0.2,0.2 0.2,0.2 0.1,0.1 0.1,0.1 0.2,0.2 0.1,0.1 0.3,0.3 0.4,0.4 0.1,0 0.1,0.1 0.2,0.1 0.1,0.1 0.2,0.2 0.3,0.3 0.1,0.1 0.1,0.1 0.2,0.2 0.1,0.1 0.2,0.1 0.3,0.2 0.1,0.1 0.2,0.1 0.2,0.2 0.1,0.1 0.2,0.1 0.3,0.2 0.1,0 0.2,0.1 0.2,0.1 0.1,0.1 0.2,0.1 0.3,0.2 0.1,0 0.2,0.1 0.2,0.1 0.1,0.1 0.2,0.1 0.3,0.2 0.1,0 0.2,0.1 0.3,0.1 0.1,0 0.2,0.1 0.3,0.1 0.1,0 0.2,0.1 0.3,0.1 0.1,0 0.2,0.1 0.3,0.1 0.1,0 0.2,0.1 0.3,0.1 0.1,0 0.2,0.1 0.3,0.1 0.1,0 0.2,0.1 0.3,0.1 0.1,0 0.2,0.1 0.3,0.1 0.1,0 0.2,0.1 0.3,0.1 0.1,0 0.2,0.1 0.3,0.1 0.1,0 0.2,0 0.3,0.1 0.1,0 0.2,0.1 0.4,0.1 0.1,0 0.2,0 0.3,0.1 0.1,0 0.2,0 0.4,0.1 0.1,0 0.2,0 0.3,0 0.1,0 0.3,0 0.4,0 0.1,0 0.2,0 0.3,0 0.1,0 0.3,0 0.4,0 0.1,0 0.1,0 0.2,0 0.2,0 0.4,0 0.7,0 1,0 2,-0.1 2.9,-0.3 0.3,-0.1 0.6,-0.1 0.9,-0.2 0.1,0 0.2,-0.1 0.3,-0.1 0.3,-0.1 0.6,-0.2 0.9,-0.3 0.4,-0.1 0.7,-0.3 1,-0.4 0.2,-0.1 0.4,-0.2 0.6,-0.3 0.5,-0.3 1,-0.6 1.4,-0.9 -0.7,-1.3 -1.5,-2.6 -2.3,-3.8 -2,0.5 -4.2,1 -6.5,1 z m 16.2,-15 c -0.8,0 -1.5,-0.1 -2.2,-0.2 -0.6,-0.1 -1.1,-0.2 -1.6,-0.4 -2.7,-0.8 -4.9,-2.4 -6.3,-4.5 -0.8,-1.2 -1.3,-2.5 -1.5,-3.9 v 0 c -0.1,-0.4 -0.1,-0.8 -0.1,-1.2 0,-0.1 0,-0.3 0,-0.4 -1.1,0.4 -2.2,0.5 -3.4,0.5 -5.1,0 -9.3,-3.6 -9.9,-8.2 v 0 c 0,0 0,0 0,0 0,0.1 0,0.3 -0.1,0.4 0,0.2 0,0.3 -0.1,0.5 0,0.1 0,0.2 0,0.2 0,0.2 0,0.4 0,0.6 0,2.2 0.6,4.2 1.8,6 1,1.5 2.3,2.8 3.9,3.8 1.3,0.8 2.7,1.4 4.2,1.7 0.2,0 0.3,0.1 0.5,0.1 0.2,0 0.3,0.1 0.5,0.1 1.4,4.8 5.9,8.4 11.5,8.9 0.4,0 0.7,0 1.1,0 0.7,0 1.4,0 2,-0.1 0,-1.4 -0.1,-2.7 -0.2,-4.1 0.1,0.2 0,0.2 -0.1,0.2 z m 21.5,-11.1 c 0,0 0,0 0,0 0,0 0,-0.1 0,-0.1 0,-0.1 0.1,-0.3 0.1,-0.4 0,0 0,-0.1 0,-0.1 0,-0.1 0.1,-0.3 0.1,-0.4 0,0 0,-0.1 0,-0.1 0,-0.2 0.1,-0.3 0.1,-0.5 0,0 0,0 0,-0.1 0,-0.2 0.1,-0.3 0.1,-0.5 0,0 0,0 0,-0.1 0,-0.2 0,-0.3 0.1,-0.5 0,0 0,0 0,0 0,-0.2 0,-0.4 0,-0.5 v 0 0 c -0.5,1.5 -1.5,2.8 -2.9,3.8 0.2,0.2 0.5,0.3 0.7,0.5 0.7,-0.4 1.2,-0.7 1.7,-1 z m -14.8,9.4 c -1.1,0.7 -2.4,1.2 -3.8,1.5 0.2,1.2 0.3,2.4 0.5,3.6 1.7,-0.6 3.1,-1.5 4.4,-2.7 -0.6,-0.8 -0.9,-1.6 -1.1,-2.4 z m 25.1,11.3 c -2.7,2.4 -6.8,3.9 -11.4,3.9 -3,0 -5.8,-0.7 -8.2,-1.8 -0.4,1.1 -0.8,2.2 -1.3,3.4 2.3,1.8 5.2,2.8 8.4,2.8 0.2,0 0.4,0 0.6,0 0.1,0 0.1,0 0.2,0 0.1,0 0.2,0 0.4,0 0.1,0 0.1,0 0.2,0 0.1,0 0.2,0 0.3,0 0.1,0 0.2,0 0.2,0 0.1,0 0.2,0 0.3,0 0.1,0 0.2,0 0.2,0 0.1,0 0.2,0 0.3,-0.1 0.1,0 0.2,0 0.2,-0.1 0.1,0 0.2,0 0.3,-0.1 0.1,0 0.2,0 0.2,-0.1 0.1,0 0.2,0 0.3,-0.1 0.1,0 0.2,0 0.2,-0.1 0.1,0 0.2,-0.1 0.3,-0.1 0.1,0 0.2,-0.1 0.2,-0.1 0.1,0 0.2,-0.1 0.2,-0.1 0.1,0 0.2,-0.1 0.2,-0.1 0.1,0 0.2,-0.1 0.2,-0.1 0.1,0 0.2,-0.1 0.2,-0.1 0.1,0 0.2,-0.1 0.2,-0.1 0.1,0 0.2,-0.1 0.2,-0.1 0.1,0 0.1,-0.1 0.2,-0.1 0.1,0 0.2,-0.1 0.2,-0.1 0.1,0 0.1,-0.1 0.2,-0.1 0.1,0 0.2,-0.1 0.2,-0.1 0.1,0 0.1,-0.1 0.2,-0.1 0.1,0 0.2,-0.1 0.2,-0.1 0.1,0 0.1,-0.1 0.2,-0.1 0.1,0 0.2,-0.1 0.2,-0.1 0.1,0 0.1,-0.1 0.2,-0.1 0.1,-0.1 0.2,-0.1 0.2,-0.2 0.1,0 0.1,-0.1 0.2,-0.1 0.1,-0.1 0.1,-0.1 0.2,-0.2 0.1,0 0.1,-0.1 0.2,-0.1 0.1,-0.1 0.1,-0.1 0.2,-0.2 0.1,0 0.1,-0.1 0.2,-0.1 0.1,-0.1 0.1,-0.1 0.2,-0.2 0,0 0.1,-0.1 0.1,-0.1 0.1,-0.1 0.1,-0.1 0.2,-0.2 0,0 0.1,-0.1 0.1,-0.1 0.1,-0.1 0.1,-0.1 0.2,-0.2 0,0 0.1,-0.1 0.1,-0.1 0.1,-0.1 0.1,-0.2 0.2,-0.2 0,0 0.1,-0.1 0.1,-0.1 0.1,-0.1 0.1,-0.2 0.2,-0.3 0,0 0.1,-0.1 0.1,-0.1 0.1,-0.1 0.1,-0.2 0.2,-0.3 0,0 0,-0.1 0.1,-0.1 0.1,-0.1 0.1,-0.2 0.2,-0.3 0,0 0,-0.1 0,-0.1 0.1,-0.1 0.1,-0.2 0.2,-0.3 0,0 0,0 0,0 1.1,-0.9 1.5,-1.7 1.7,-2.4 0,0 0,0 0,0 z m -10,-0.2 c -0.6,0.2 -1,0.8 -0.8,1.5 0.2,0.6 0.8,1 1.5,0.8 0.6,-0.2 1,-0.8 0.8,-1.5 -0.2,-0.6 -0.8,-1 -1.5,-0.8 z m -15.4,-3.4 c 0,0 0,0 0,0 0,2.3 0.7,4.4 1.8,6.2 0.4,-0.8 0.7,-1.5 1.1,-2.3 -1.2,-1.2 -2.3,-2.5 -2.9,-3.9 z m 11.2,5.8 c 1.1,-0.3 1.8,-1.5 1.5,-2.6 -0.3,-1.1 -1.5,-1.8 -2.6,-1.5 -1.1,0.3 -1.8,1.5 -1.5,2.6 0.3,1.2 1.5,1.8 2.6,1.5 z"
         class="st1" />
      <path
         style="fill:#a05f26"
         inkscape:connector-curvature="0"
         id="path1000"
         d="m 428.5,517.4 c -0.4,0.8 -0.8,1.6 -1.1,2.3 -1.4,3 -2.4,5.8 -3.3,8.2 -0.5,-6.4 -1.1,-12 -1.7,-16.9 -0.2,-1.3 -0.3,-2.5 -0.5,-3.6 -2.8,-20.1 -6.3,-26.5 -6.3,-26.5 2.1,6.7 3.2,16.3 3.7,26.8 0.1,1.3 0.1,2.7 0.2,4.1 0.2,6.7 0.3,13.6 0.2,20.2 -1.6,-3.4 -3.6,-6.4 -5.6,-9 -0.8,-1 -1.6,-1.9 -2.3,-2.7 -5.3,-5.8 -10.4,-8.5 -10.4,-8.5 3,2.7 5.7,6.1 8,9.7 0.8,1.3 1.6,2.5 2.3,3.8 3.8,6.8 6.4,13.9 7.8,18.1 -0.5,15.5 -1.5,27.3 -1.5,27.3 h 7.6 c 0,-11.3 -0.2,-21.3 -0.7,-30 1.5,-6.7 3.4,-12.7 5.2,-17.9 0.4,-1.2 0.8,-2.3 1.3,-3.4 4.4,-11.4 8.5,-18.1 8.5,-18.1 -5,4.7 -8.7,10.6 -11.4,16.1 z"
         class="st3" />
    </g>
  </g>
</svg>
