<?xml version="1.0" encoding="UTF-8" standalone="no"?>
<!-- Created with Inkscape (http://www.inkscape.org/) -->

<svg
   xmlns:dc="http://purl.org/dc/elements/1.1/"
   xmlns:cc="http://creativecommons.org/ns#"
   xmlns:rdf="http://www.w3.org/1999/02/22-rdf-syntax-ns#"
   xmlns:svg="http://www.w3.org/2000/svg"
   xmlns="http://www.w3.org/2000/svg"
   xmlns:sodipodi="http://sodipodi.sourceforge.net/DTD/sodipodi-0.dtd"
   xmlns:inkscape="http://www.inkscape.org/namespaces/inkscape"
   width="22.172083mm"
   height="30.744583mm"
   viewBox="0 0 22.172083 30.744583"
   version="1.1"
   id="svg2606"
   inkscape:version="0.92.5 (2060ec1f9f, 2020-04-08)"
   sodipodi:docname="tree02.svg">
  <defs
     id="defs2600" />
  <sodipodi:namedview
     id="base"
     pagecolor="#ffffff"
     bordercolor="#666666"
     borderopacity="1.0"
     inkscape:pageopacity="0.0"
     inkscape:pageshadow="2"
     inkscape:zoom="0.35"
     inkscape:cx="48.081432"
     inkscape:cy="61.228555"
     inkscape:document-units="mm"
     inkscape:current-layer="layer1"
     showgrid="false"
     fit-margin-top="0"
     fit-margin-left="0"
     fit-margin-right="0"
     fit-margin-bottom="0"
     inkscape:window-width="1920"
     inkscape:window-height="1016"
     inkscape:window-x="0"
     inkscape:window-y="27"
     inkscape:window-maximized="1" />
  <metadata
     id="metadata2603">
    <rdf:RDF>
      <cc:Work
         rdf:about="">
        <dc:format>image/svg+xml</dc:format>
        <dc:type
           rdf:resource="http://purl.org/dc/dcmitype/StillImage" />
        <dc:title></dc:title>
      </cc:Work>
    </rdf:RDF>
  </metadata>
  <g
     inkscape:label="Calque 1"
     inkscape:groupmode="layer"
     id="layer1"
     transform="translate(84.537024,-134.2888)">
    <g
       transform="matrix(0.26458333,0,0,0.26458333,-123.80119,52.373806)"
       id="g930">
      <path
         style="fill:none"
         inkscape:connector-curvature="0"
         id="path918"
         d="m 154.5,373.1 c 0,0 0,0.1 0,0.1 v 0 c 0,0 0,-0.1 0,-0.1 z"
         class="st4" />
      <path
         style="fill:none"
         inkscape:connector-curvature="0"
         id="path920"
         d="m 188.8,372.9 v 0 0 c 0,0.1 0,0.1 0,0.2 0,1.3 -0.1,2.5 -0.4,3.7 1.6,1 3.1,2.1 4.4,3.4 0,-3.6 -0.1,-7.2 -0.2,-10.8 -1.3,0.5 -2.6,0.8 -4,1 0.1,0.8 0.2,1.6 0.2,2.5 z"
         class="st4" />
      <path
         style="fill:#a05f26"
         inkscape:connector-curvature="0"
         id="path922"
         d="m 197,360.8 c 0.1,-1.1 0.1,-2.2 0.2,-3.3 1.6,-17.5 8.6,-26 8.6,-26 -6.5,3.4 -9.8,13.3 -11.3,19.1 -2.9,-10.2 -5.9,-14.1 -5.9,-14.1 1.9,5.6 3,14.6 3.5,24.8 0.1,2.6 0.2,5.2 0.3,7.9 0.1,3.6 0.1,7.2 0.2,10.8 -1.3,-1.3 -2.8,-2.4 -4.4,-3.4 -0.1,0.2 -0.1,0.4 -0.2,0.7 v 0 c 0,0 0,0 0,0 -0.2,0.6 -0.4,1.3 -0.6,1.9 0,0 0,0.1 -0.1,0.1 -0.1,0.2 -0.1,0.3 -0.2,0.5 0,0.1 -0.1,0.1 -0.1,0.2 -0.1,0.2 -0.2,0.3 -0.2,0.5 0,0.1 -0.1,0.1 -0.1,0.2 -0.1,0.2 -0.2,0.3 -0.3,0.5 0,0 0,0.1 0,0.1 0,0.1 -0.1,0.1 -0.1,0.2 3.1,2.9 5.2,5.6 6.3,7.1 -0.2,19.9 -1.4,37.2 -1.4,37.2 h 8.5 c 1.5,-26.6 0.3,-45.9 -1.9,-59.7 -0.1,-1.8 -0.4,-3.6 -0.8,-5.3 z"
         class="st3" />
      <path
         style="fill:#82b04a"
         inkscape:connector-curvature="0"
         id="path924"
         d="m 228.8,328.5 c 0.3,0.5 0.5,1 0.8,1.5 -0.2,-0.5 -0.5,-1 -0.8,-1.5 z m 0.8,1.5 c 0.2,0.4 0.4,0.8 0.6,1.2 -0.2,-0.4 -0.4,-0.8 -0.6,-1.2 z m 0.5,17.3 c 0,0 0,0.1 0,0.1 0,-0.1 0,-0.1 0,-0.1 0,0 0,0 0,0 z m 1.6,-8.2 c 0,2.9 -0.6,5.6 -1.6,8.1 -6.2,6.3 -16.6,8.7 -26.8,5.3 -1,-0.3 -2,-0.7 -3,-1.2 -0.4,2.3 -1.5,4.4 -3,6.2 1.6,-17.5 8.6,-26 8.6,-26 -6.5,3.4 -9.8,13.3 -11.3,19.1 -2.9,-10.2 -5.9,-14.1 -5.9,-14.1 1.9,5.6 3,14.6 3.5,24.8 -2,1 -4.3,1.7 -6.8,1.9 1.5,2 2.6,4.4 3.1,7.1 0.1,0.8 0.2,1.7 0.2,2.6 0,-0.9 -0.1,-1.7 -0.2,-2.6 -0.4,-2.6 -1.5,-5 -3.1,-7.1 -0.2,-0.3 -0.5,-0.6 -0.7,-0.9 0,0 0,0 0,0 -0.2,-0.2 -0.3,-0.4 -0.5,-0.6 0,0 0,0 0,0 -0.2,-0.2 -0.4,-0.4 -0.5,-0.5 0,0 0,0 0,0 -0.2,-0.2 -0.4,-0.3 -0.5,-0.5 0,0 0,0 -0.1,-0.1 -0.2,-0.2 -0.4,-0.3 -0.5,-0.5 0,0 -0.1,0 -0.1,-0.1 -0.2,-0.1 -0.4,-0.3 -0.6,-0.4 0,0 -0.1,-0.1 -0.1,-0.1 -0.2,-0.1 -0.4,-0.3 -0.5,-0.4 0,0 -0.1,-0.1 -0.1,-0.1 -0.2,-0.1 -0.4,-0.2 -0.5,-0.3 -0.1,0 -0.1,-0.1 -0.2,-0.1 -0.2,-0.1 -0.4,-0.2 -0.5,-0.3 -0.1,0 -0.1,-0.1 -0.2,-0.1 -0.2,-0.1 -0.3,-0.2 -0.5,-0.3 -0.1,0 -0.2,-0.1 -0.3,-0.1 -0.2,-0.1 -0.3,-0.2 -0.5,-0.2 -0.1,0 -0.2,-0.1 -0.3,-0.1 -0.2,-0.1 -0.3,-0.1 -0.5,-0.2 -0.1,0 -0.2,-0.1 -0.3,-0.1 -0.2,-0.1 -0.3,-0.1 -0.5,-0.2 -0.1,0 -0.2,-0.1 -0.4,-0.1 -0.1,0 -0.3,-0.1 -0.4,-0.1 -0.1,0 -0.3,-0.1 -0.4,-0.1 -0.1,0 -0.3,-0.1 -0.4,-0.1 -0.1,0 -0.3,-0.1 -0.4,-0.1 -0.1,0 -0.3,0 -0.4,-0.1 -0.2,0 -0.3,0 -0.5,-0.1 -0.1,0 -0.2,0 -0.4,0 -0.2,0 -0.4,0 -0.6,0 -0.1,0 -0.2,0 -0.3,0 -0.3,0 -0.6,0 -0.9,0 -0.6,0 -1.1,0 -1.7,0.1 -0.2,-0.2 -0.3,-0.5 -0.5,-0.7 -0.1,-0.5 -0.1,-1 -0.1,-1.5 -0.5,-0.2 -1,-0.5 -1.5,-0.7 -2.2,-2.8 -3.5,-6.3 -3.5,-10 0,-7.5 5.1,-13.8 12.1,-15.9 2.8,-5.6 8.7,-9.4 15.4,-9.4 2.4,0 4.6,0.5 6.7,1.3 1.4,-2.6 4.1,-4.4 7.3,-4.4 4.6,0 8.3,3.7 8.3,8.3 0,0.7 -0.1,1.4 -0.3,2 7.6,0.5 14.2,4.9 17.6,11.3 0.1,0.7 0.1,1.6 0.1,2.4 z m -34.2,-17.7 c -0.2,-1 -1.1,-1.7 -2.1,-1.6 -1,0.2 -1.7,1.1 -1.6,2.1 0.2,1 1.1,1.7 2.1,1.6 1.1,-0.1 1.8,-1.1 1.6,-2.1 z m 6.5,1.4 c -0.2,-1.2 -1.3,-1.9 -2.4,-1.8 -1.1,0.1 -1.9,1.3 -1.8,2.4 0.2,1.2 1.3,1.9 2.4,1.8 1.2,-0.2 2,-1.3 1.8,-2.4 z m 1.2,-4.2 c -0.1,-0.6 -0.7,-1.1 -1.3,-1 -0.6,0.1 -1.1,0.7 -1,1.3 0.1,0.6 0.7,1.1 1.3,1 0.6,-0.1 1.1,-0.7 1,-1.3 z m -2.9,25.5 c 0.1,0.6 0.7,1.1 1.3,1 0.6,-0.1 1.1,-0.7 1,-1.3 -0.1,-0.6 -0.7,-1.1 -1.3,-1 -0.6,0 -1.1,0.7 -1,1.3 z m 3.5,4.4 c -0.2,-1 -1.1,-1.7 -2.1,-1.6 -1,0.2 -1.7,1.1 -1.6,2.1 0.1,1 1.1,1.7 2.1,1.6 1.1,-0.1 1.8,-1.1 1.6,-2.1 z m 24.2,-1.1 c -0.1,0.2 -0.2,0.4 -0.2,0.5 0.1,-0.2 0.2,-0.4 0.2,-0.5 z m -5.3,7.5 c 0.3,-0.3 0.6,-0.6 1,-0.9 -0.4,0.3 -0.7,0.6 -1,0.9 z m -60.1,-3.8 c -0.5,-0.4 -0.9,-0.9 -1.3,-1.4 0.4,0.5 0.9,1 1.3,1.4 z m 0,0 c 0.3,0.3 0.6,0.6 1,0.8 -0.3,-0.2 -0.6,-0.5 -1,-0.8 z m 61.8,2 c 0.5,-0.5 0.9,-1.1 1.3,-1.6 -0.4,0.6 -0.8,1.1 -1.3,1.6 z m 1.9,-2.5 c 0.4,-0.6 0.8,-1.2 1.1,-1.9 -0.3,0.7 -0.7,1.3 -1.1,1.9 z M 159,384.4 c -2.8,-2.9 -4.5,-6.9 -4.5,-11.1 0,4.2 1.7,8.1 4.5,11.1 z m 29.8,-11.5 c 0,0.1 0,0.1 0,0.2 0,1.3 -0.1,2.5 -0.4,3.7 -0.1,0.2 -0.1,0.4 -0.2,0.7 -0.9,1 -1.9,2 -3.1,2.8 -3.4,2.6 -7.7,4.1 -12.4,4.1 -8.1,0 -15,-4.6 -18.3,-11.2 0,0 0,-0.1 0,-0.1 0,-0.1 0,-0.3 0,-0.4 -0.1,0 -0.2,-0.1 -0.3,-0.1 -1.8,-0.5 -3.4,-1.7 -4.4,-3.2 0,0 0,-0.1 0,-0.1 0,-4.6 3.7,-8.3 8.3,-8.3 2.7,0 5.2,1.3 6.7,3.4 2.2,-1.1 4.6,-1.8 7.2,-2 0,0 0,0 0,0 0.3,0 0.7,0 1,0 6.2,0 11.6,3.2 14.6,8 0.5,0.8 0.9,1.7 1.3,2.5 z m -14.2,3 c -0.1,-0.6 -0.7,-1.1 -1.3,-1 -0.6,0.1 -1.1,0.7 -1,1.3 0.1,0.6 0.7,1.1 1.3,1 0.7,-0.1 1.1,-0.7 1,-1.3 z m 5.2,4 c -0.2,-1.2 -1.3,-1.9 -2.4,-1.8 -1.2,0.2 -1.9,1.3 -1.8,2.4 0.2,1.2 1.3,1.9 2.4,1.8 1.2,-0.2 2,-1.3 1.8,-2.4 z m 4.2,4.7 c -0.4,0.4 -0.8,0.7 -1.2,1.1 0.5,-0.4 0.9,-0.7 1.2,-1.1 z m 1.6,-1.8 c 0.3,-0.4 0.6,-0.9 0.9,-1.3 0,-0.1 0.1,-0.1 0.1,-0.2 0,0.1 -0.1,0.1 -0.1,0.2 -0.3,0.4 -0.6,0.9 -0.9,1.3 z m 2,-3.5 c 0.2,-0.6 0.5,-1.2 0.6,-1.9 -0.2,0.7 -0.4,1.3 -0.6,1.9 z"
         class="st0" />
      <path
         style="fill:#b4d157"
         inkscape:connector-curvature="0"
         id="path926"
         d="m 197.5,321.4 c 0.2,1 -0.5,2 -1.6,2.1 -1,0.2 -2,-0.5 -2.1,-1.6 -0.2,-1 0.5,-2 1.6,-2.1 1,-0.1 2,0.6 2.1,1.6 z m 4.1,-0.4 c -1.2,0.2 -1.9,1.3 -1.8,2.4 0.2,1.2 1.3,1.9 2.4,1.8 1.2,-0.2 1.9,-1.3 1.8,-2.4 -0.1,-1.1 -1.3,-2 -2.4,-1.8 z m 2.2,-3.4 c -0.6,0.1 -1.1,0.7 -1,1.3 0.1,0.6 0.7,1.1 1.3,1 0.6,-0.1 1.1,-0.7 1,-1.3 0,-0.7 -0.6,-1.1 -1.3,-1 z m 27.7,18.3 c 0,0 0,-0.1 0,-0.1 0,-0.2 -0.1,-0.4 -0.1,-0.6 0,-0.1 0,-0.1 0,-0.2 0,-0.2 -0.1,-0.4 -0.1,-0.6 0,-0.1 0,-0.1 0,-0.2 0,-0.2 -0.1,-0.4 -0.2,-0.6 0,-0.1 0,-0.1 -0.1,-0.2 -0.1,-0.2 -0.1,-0.4 -0.2,-0.6 0,-0.1 0,-0.1 -0.1,-0.2 -0.1,-0.2 -0.1,-0.4 -0.2,-0.6 0,0 0,-0.1 -0.1,-0.1 -0.1,-0.2 -0.2,-0.4 -0.2,-0.6 0,0 0,0 0,-0.1 -0.4,-0.9 -0.8,-1.8 -1.3,-2.7 0,0 0,0 0,0 -0.1,-0.2 -0.2,-0.4 -0.3,-0.5 0,-0.1 -0.1,-0.1 -0.1,-0.2 -0.1,-0.2 -0.2,-0.3 -0.3,-0.5 0,-0.1 -0.1,-0.1 -0.1,-0.2 -0.1,-0.1 -0.2,-0.3 -0.3,-0.4 -0.1,-0.1 -0.1,-0.2 -0.2,-0.2 -0.1,-0.1 -0.2,-0.3 -0.3,-0.4 -0.1,-0.1 -0.1,-0.2 -0.2,-0.2 -0.1,-0.1 -0.2,-0.3 -0.3,-0.4 -0.1,-0.1 -0.1,-0.2 -0.2,-0.2 -0.1,-0.1 -0.2,-0.2 -0.3,-0.4 -0.1,-0.1 -0.2,-0.2 -0.2,-0.2 -0.1,-0.1 -0.2,-0.2 -0.3,-0.3 -0.1,-0.1 -0.2,-0.2 -0.2,-0.2 -0.1,-0.1 -0.2,-0.2 -0.3,-0.3 -0.1,-0.1 -0.2,-0.2 -0.3,-0.2 -0.1,-0.1 -0.2,-0.2 -0.3,-0.3 -0.1,-0.1 -0.2,-0.2 -0.3,-0.3 -0.2,-0.2 -0.4,-0.3 -0.6,-0.5 -0.1,-0.1 -0.2,-0.2 -0.3,-0.3 -0.1,-0.1 -0.2,-0.2 -0.3,-0.2 -0.1,-0.1 -0.2,-0.2 -0.4,-0.3 -0.1,-0.1 -0.2,-0.1 -0.3,-0.2 -0.1,-0.1 -0.2,-0.2 -0.4,-0.2 -0.1,-0.1 -0.2,-0.1 -0.3,-0.2 -0.1,-0.1 -0.3,-0.2 -0.4,-0.2 -0.1,-0.1 -0.2,-0.1 -0.3,-0.2 -0.1,-0.1 -0.3,-0.1 -0.4,-0.2 -0.1,-0.1 -0.2,-0.1 -0.3,-0.2 -0.1,-0.1 -0.3,-0.1 -0.4,-0.2 -0.1,-0.1 -0.2,-0.1 -0.3,-0.2 -0.1,-0.1 -0.3,-0.1 -0.4,-0.2 -0.1,0 -0.2,-0.1 -0.3,-0.1 -0.2,-0.1 -0.3,-0.1 -0.5,-0.2 -0.1,0 -0.2,-0.1 -0.3,-0.1 -0.2,-0.1 -0.4,-0.1 -0.5,-0.2 -0.1,0 -0.2,-0.1 -0.3,-0.1 -0.3,-0.1 -0.5,-0.2 -0.8,-0.3 0,-0.3 0.1,-0.6 0.1,-0.9 0,-4.6 -3.7,-8.3 -8.3,-8.3 -3.2,0 -5.9,1.8 -7.3,4.4 -2.8,-1.9 -6.2,-3 -9.8,-3 -7.7,0 -14.3,5 -16.4,11.8 -8.4,1 -15,8 -15,16.5 0,0.2 0,0.4 0,0.6 0,0.1 0,0.1 0,0.2 0,0.1 0,0.3 0,0.4 0,0.1 0,0.2 0,0.2 0,0.1 0,0.2 0,0.4 0,0.1 0,0.2 0,0.3 0,0.1 0,0.2 0,0.3 0,0.1 0,0.2 0,0.3 0,0.1 0,0.2 0.1,0.3 0,0.1 0,0.2 0.1,0.3 0,0.1 0,0.2 0.1,0.3 0,0.1 0,0.2 0.1,0.3 0,0.1 0,0.2 0.1,0.3 0,0.1 0,0.2 0.1,0.3 0,0.1 0.1,0.2 0.1,0.3 0,0.1 0.1,0.2 0.1,0.3 0,0.1 0.1,0.2 0.1,0.3 0,0.1 0.1,0.2 0.1,0.3 0,0.1 0.1,0.2 0.1,0.3 0,0.1 0.1,0.2 0.1,0.3 0,0.1 0.1,0.1 0.1,0.2 0.1,0.2 0.2,0.4 0.3,0.6 0,0.1 0.1,0.1 0.1,0.2 0,0.1 0.1,0.2 0.2,0.3 0,0.1 0.1,0.1 0.1,0.2 0.1,0.1 0.1,0.2 0.2,0.3 0,0.1 0.1,0.1 0.1,0.2 0.1,0.1 0.1,0.2 0.2,0.3 0,0.1 0.1,0.1 0.1,0.2 0.1,0.1 0.1,0.2 0.2,0.3 0,0.1 0.1,0.1 0.1,0.2 0.1,0.1 0.1,0.2 0.2,0.3 0,0.1 0.1,0.1 0.1,0.1 0.1,0.1 0.1,0.2 0.2,0.3 0,0 0.1,0.1 0.1,0.1 0.1,0.1 0.2,0.2 0.2,0.3 0,0 0.1,0.1 0.1,0.1 0.1,0.1 0.2,0.2 0.3,0.3 0,0 0,0 0,0 0.7,0.8 1.4,1.5 2.3,2.2 0,0 0,0 0,0 0.1,0.1 0.3,0.2 0.4,0.3 0,0 0,0 0.1,0 0.1,0.1 0.3,0.2 0.4,0.3 0,0 0,0 0.1,0 0.1,0.1 0.3,0.2 0.4,0.3 0,0 0,0 0.1,0 0.1,0.1 0.3,0.2 0.4,0.3 0,0 0,0 0,0 0.1,0.1 0.3,0.2 0.4,0.3 v 0 0 c -2.2,-2.8 -3.5,-6.3 -3.5,-10 0,-7.5 5.1,-13.8 12.1,-15.9 2.8,-5.6 8.7,-9.4 15.4,-9.4 2.4,0 4.6,0.5 6.7,1.3 1.4,-2.6 4.1,-4.4 7.3,-4.4 4.6,0 8.3,3.7 8.3,8.3 0,0.7 -0.1,1.4 -0.3,2 7.6,0.5 14.2,4.9 17.6,11.3 -0.6,-0.6 -0.7,-0.9 -0.7,-1.1 z m -46,27.4 c -0.2,-0.3 -0.5,-0.6 -0.7,-0.9 0,0 0,0 0,0 -0.2,-0.2 -0.3,-0.4 -0.5,-0.6 0,0 0,0 0,0 -0.2,-0.2 -0.4,-0.4 -0.5,-0.5 0,0 0,0 0,0 -0.2,-0.2 -0.4,-0.3 -0.5,-0.5 0,0 0,0 -0.1,-0.1 -0.2,-0.2 -0.4,-0.3 -0.5,-0.5 0,0 -0.1,0 -0.1,-0.1 -0.2,-0.1 -0.4,-0.3 -0.6,-0.4 0,0 -0.1,-0.1 -0.1,-0.1 -0.2,-0.1 -0.4,-0.3 -0.5,-0.4 0,0 -0.1,-0.1 -0.1,-0.1 -0.2,-0.1 -0.4,-0.2 -0.5,-0.3 -0.1,0 -0.1,-0.1 -0.2,-0.1 -0.2,-0.1 -0.4,-0.2 -0.5,-0.3 -0.1,0 -0.1,-0.1 -0.2,-0.1 -0.2,-0.1 -0.3,-0.2 -0.5,-0.3 -0.1,0 -0.2,-0.1 -0.3,-0.1 -0.2,-0.1 -0.3,-0.2 -0.5,-0.2 -0.1,0 -0.2,-0.1 -0.3,-0.1 -0.2,-0.1 -0.3,-0.1 -0.5,-0.2 -0.1,0 -0.2,-0.1 -0.3,-0.1 -0.2,-0.1 -0.3,-0.1 -0.5,-0.2 -0.1,0 -0.2,-0.1 -0.4,-0.1 -0.1,0 -0.3,-0.1 -0.4,-0.1 -0.1,0 -0.3,-0.1 -0.4,-0.1 -0.1,0 -0.3,-0.1 -0.4,-0.1 -0.1,0 -0.3,-0.1 -0.4,-0.1 -0.1,0 -0.3,0 -0.4,-0.1 -0.2,0 -0.3,0 -0.5,-0.1 -0.1,0 -0.2,0 -0.4,0 -0.2,0 -0.4,0 -0.6,0 -0.1,0 -0.2,0 -0.3,0 -0.3,0 -0.6,0 -0.9,0 -0.6,0 -1.1,0 -1.7,0.1 -0.1,0 -0.3,0 -0.4,0 v 0 c -2.6,0.3 -5,1.2 -7.1,2.4 -1.5,-1.6 -3.6,-2.6 -6,-2.6 -4.6,0 -8.3,3.7 -8.3,8.3 0,0.2 0,0.5 0,0.7 0,0.1 0,0.2 0,0.3 0,0.1 0,0.3 0.1,0.4 0,0.1 0,0.2 0.1,0.4 0,0.1 0,0.2 0.1,0.3 0,0.1 0.1,0.3 0.1,0.4 0,0.1 0,0.1 0.1,0.2 0,0.1 0.1,0.3 0.2,0.4 0,0 0,0.1 0.1,0.1 0.1,0.2 0.1,0.3 0.2,0.5 0,0 0,0.1 0,0.1 0.1,0.2 0.2,0.3 0.3,0.5 0,0 0,0 0,0 0.1,0.2 0.2,0.3 0.3,0.5 v 0 0 c 0,0 0,-0.1 0,-0.1 0,-4.6 3.7,-8.3 8.3,-8.3 2.7,0 5.2,1.3 6.7,3.4 2.2,-1.1 4.6,-1.8 7.2,-2 0,0 0,0 0,0 0.3,0 0.7,0 1,0 6.2,0 11.6,3.2 14.6,8 0.5,0.8 0.9,1.6 1.3,2.5 v 0 c 0,-0.9 -0.1,-1.7 -0.2,-2.6 -0.8,-2.6 -1.9,-5 -3.4,-7 z"
         class="st2" />
      <path
         style="fill:#5f9540"
         inkscape:connector-curvature="0"
         id="path928"
         d="m 192.3,361.4 c 0.1,2.6 0.2,5.2 0.3,7.9 -1.3,0.5 -2.6,0.8 -4,1 -0.4,-2.6 -1.5,-5 -3.1,-7.1 2.4,-0.1 4.7,-0.7 6.8,-1.8 z m -22.7,-4.9 c 0,0 0,0 0,0 v 0 c 0.1,0.1 0.3,0 0.4,0 -0.2,-0.2 -0.3,-0.5 -0.5,-0.7 v 0 c 0,0.2 0,0.5 0.1,0.7 z m 33.7,-3.9 c -1,-0.3 -2,-0.7 -3,-1.2 -0.4,2.3 -1.5,4.4 -3,6.2 -0.1,1.1 -0.2,2.1 -0.2,3.3 0.3,1.7 0.6,3.5 0.9,5.3 2.1,-1.8 3.7,-4.1 4.7,-6.7 2.2,0.7 4.6,1.1 7,1.1 0.3,0 0.7,0 1,0 0.1,0 0.2,0 0.3,0 0.2,0 0.5,0 0.7,-0.1 0.1,0 0.2,0 0.3,0 0.3,0 0.6,-0.1 0.9,-0.1 0,0 0.1,0 0.1,0 0.3,0 0.6,-0.1 1,-0.2 0.1,0 0.2,0 0.3,-0.1 0.2,0 0.5,-0.1 0.7,-0.2 0.1,0 0.2,-0.1 0.3,-0.1 0.2,-0.1 0.5,-0.1 0.7,-0.2 0.1,0 0.1,0 0.2,-0.1 0.3,-0.1 0.6,-0.2 0.9,-0.3 0.1,0 0.2,-0.1 0.3,-0.1 0.2,-0.1 0.4,-0.1 0.6,-0.2 0.1,0 0.2,-0.1 0.4,-0.1 0.2,-0.1 0.4,-0.2 0.6,-0.3 0.1,0 0.2,-0.1 0.3,-0.1 0.3,-0.1 0.5,-0.3 0.8,-0.4 0.1,-0.1 0.2,-0.1 0.4,-0.2 0.2,-0.1 0.3,-0.2 0.5,-0.3 0.1,-0.1 0.3,-0.1 0.4,-0.2 0.1,-0.1 0.3,-0.2 0.4,-0.3 0.1,-0.1 0.2,-0.2 0.4,-0.2 0.2,-0.2 0.5,-0.3 0.7,-0.5 0.1,-0.1 0.3,-0.2 0.4,-0.3 0.1,-0.1 0.2,-0.2 0.3,-0.3 0.1,-0.1 0.3,-0.2 0.4,-0.3 0.1,-0.1 0.2,-0.2 0.3,-0.2 0.1,-0.1 0.3,-0.2 0.4,-0.4 0,0 0,0 0,0 0.3,-0.3 0.6,-0.6 1,-0.9 0.1,-0.1 0.1,-0.1 0.2,-0.2 0.1,-0.1 0.3,-0.3 0.4,-0.4 0.1,-0.1 0.1,-0.1 0.2,-0.2 0.5,-0.5 0.9,-1.1 1.3,-1.6 0,0 0.1,-0.1 0.1,-0.1 0.1,-0.2 0.3,-0.4 0.4,-0.5 0,-0.1 0.1,-0.1 0.1,-0.2 0.4,-0.6 0.8,-1.2 1.1,-1.9 0,0 0,-0.1 0,-0.1 0.1,-0.2 0.2,-0.4 0.3,-0.6 0,-0.1 0.1,-0.1 0.1,-0.2 0.1,-0.2 0.2,-0.4 0.3,-0.6 -6.3,6.2 -16.8,8.6 -26.9,5.3 z m 1,-1.9 c 1,-0.2 1.7,-1.1 1.6,-2.1 -0.2,-1 -1.1,-1.7 -2.1,-1.6 -1,0.2 -1.7,1.1 -1.6,2.1 0.1,1 1.1,1.7 2.1,1.6 z m -0.6,-5.6 c 0.6,-0.1 1.1,-0.7 1,-1.3 -0.1,-0.6 -0.7,-1.1 -1.3,-1 -0.6,0.1 -1.1,0.7 -1,1.3 0,0.6 0.6,1.1 1.3,1 z m -49.2,27.6 c -0.1,0 -0.2,-0.1 -0.3,-0.1 0.1,0.2 0.2,0.4 0.3,0.6 0,0 0,-0.1 0,-0.1 0,-0.1 0,-0.3 0,-0.4 z m 19.2,4.5 c 0.6,-0.1 1.1,-0.7 1,-1.3 -0.1,-0.6 -0.7,-1.1 -1.3,-1 -0.6,0.1 -1.1,0.7 -1,1.3 0,0.7 0.6,1.1 1.3,1 z m 4.4,5.1 c 1.2,-0.2 1.9,-1.3 1.8,-2.4 -0.2,-1.2 -1.3,-1.9 -2.4,-1.8 -1.2,0.2 -1.9,1.3 -1.8,2.4 0.1,1.2 1.2,2 2.4,1.8 z m 7,-2 c -3.4,2.6 -7.7,4.1 -12.4,4.1 -8.1,0 -15,-4.6 -18.3,-11.2 v 0 0 0 c 0,4.3 1.7,8.2 4.5,11.1 0,0 0,0 0,0 0.2,0.2 0.4,0.4 0.6,0.6 0,0 0,0 0,0 0.2,0.2 0.4,0.4 0.6,0.5 0,0 0,0 0.1,0 0.2,0.2 0.4,0.3 0.6,0.5 0,0 0.1,0 0.1,0.1 0.2,0.1 0.4,0.3 0.6,0.4 0,0 0.1,0 0.1,0.1 0.2,0.1 0.4,0.3 0.6,0.4 0,0 0.1,0.1 0.1,0.1 0.2,0.1 0.4,0.2 0.6,0.3 0.1,0 0.1,0.1 0.2,0.1 0.2,0.1 0.4,0.2 0.6,0.3 0.1,0 0.1,0.1 0.2,0.1 0.2,0.1 0.4,0.2 0.5,0.3 0.1,0 0.2,0.1 0.2,0.1 0.2,0.1 0.3,0.2 0.5,0.2 0.1,0 0.2,0.1 0.3,0.1 0.2,0.1 0.3,0.1 0.5,0.2 0.1,0 0.2,0.1 0.3,0.1 0.2,0.1 0.3,0.1 0.5,0.2 0.1,0 0.2,0.1 0.4,0.1 0.2,0 0.3,0.1 0.5,0.1 0.1,0 0.3,0.1 0.4,0.1 0.1,0 0.3,0.1 0.4,0.1 0.1,0 0.3,0.1 0.4,0.1 0.1,0 0.3,0.1 0.4,0.1 0.2,0 0.3,0 0.5,0.1 0.1,0 0.3,0 0.4,0 0.2,0 0.3,0 0.5,0 0.1,0 0.2,0 0.3,0 0.3,0 0.6,0 0.9,0 0.3,0 0.5,0 0.8,0 0.1,0 0.2,0 0.3,0 0.2,0 0.4,0 0.6,0 0.1,0 0.2,0 0.3,0 0.2,0 0.3,0 0.5,-0.1 0.1,0 0.2,0 0.3,0 0.2,0 0.3,-0.1 0.5,-0.1 0.1,0 0.2,0 0.3,-0.1 0.2,0 0.4,-0.1 0.6,-0.1 0,0 0.1,0 0.1,0 0.3,-0.1 0.5,-0.1 0.7,-0.2 0.1,0 0.2,-0.1 0.3,-0.1 0.2,-0.1 0.3,-0.1 0.5,-0.2 0.1,0 0.2,-0.1 0.3,-0.1 0.1,-0.1 0.3,-0.1 0.4,-0.2 0.1,0 0.2,-0.1 0.3,-0.1 0.1,-0.1 0.3,-0.1 0.4,-0.2 0.1,0 0.2,-0.1 0.3,-0.1 0.1,-0.1 0.3,-0.1 0.4,-0.2 0.1,0 0.2,-0.1 0.2,-0.1 0.2,-0.1 0.4,-0.2 0.6,-0.4 0.1,-0.1 0.2,-0.1 0.3,-0.2 0.1,-0.1 0.2,-0.1 0.3,-0.2 0.1,-0.1 0.2,-0.1 0.3,-0.2 0.1,-0.1 0.2,-0.1 0.3,-0.2 0.1,-0.1 0.2,-0.2 0.3,-0.2 0.1,-0.1 0.2,-0.1 0.3,-0.2 0.1,-0.1 0.2,-0.2 0.3,-0.3 0.1,-0.1 0.2,-0.1 0.2,-0.2 0.4,-0.3 0.8,-0.7 1.2,-1.1 0.1,-0.1 0.1,-0.1 0.2,-0.2 0.1,-0.1 0.2,-0.2 0.3,-0.3 0.1,-0.1 0.1,-0.1 0.2,-0.2 0.1,-0.1 0.2,-0.2 0.3,-0.4 0.1,-0.1 0.1,-0.1 0.2,-0.2 0.1,-0.1 0.2,-0.3 0.3,-0.4 0,-0.1 0.1,-0.1 0.1,-0.2 0.3,-0.4 0.6,-0.9 0.9,-1.3 0,-0.1 0.1,-0.1 0.1,-0.2 0,0 0,-0.1 0,-0.1 0.1,-0.2 0.2,-0.3 0.3,-0.5 0,-0.1 0.1,-0.1 0.1,-0.2 0.1,-0.2 0.2,-0.3 0.2,-0.5 0,-0.1 0.1,-0.1 0.1,-0.2 0.1,-0.2 0.1,-0.3 0.2,-0.5 0,0 0,-0.1 0.1,-0.1 0.2,-0.6 0.5,-1.2 0.6,-1.9 0,0 0,0 0,0 v 0 c -0.9,1.3 -1.9,2.2 -3.1,3.1 z"
         class="st1" />
    </g>
  </g>
</svg>
